<svg xmlns="http://www.w3.org/2000/svg" xmlns:xlink="http://www.w3.org/1999/xlink" width="2000" zoomAndPan="magnify" viewBox="0 0 1500 1499.999933" height="2000" preserveAspectRatio="xMidYMid meet" version="1.0"><defs><g/><clipPath id="b9a72075b6"><rect x="0" width="127" y="0" height="183"/></clipPath><clipPath id="ed8841e7a6"><rect x="0" width="293" y="0" height="227"/></clipPath><clipPath id="7efd123783"><rect x="0" width="398" y="0" height="227"/></clipPath><clipPath id="00205e8b65"><rect x="0" width="348" y="0" height="227"/></clipPath><clipPath id="20600a3449"><rect x="0" width="153" y="0" height="227"/></clipPath><clipPath id="b616048890"><rect x="0" width="34" y="0" height="120"/></clipPath></defs><rect x="-150" width="1800" fill="#ffffff" y="-149.999993" height="1799.99992" fill-opacity="1"/><rect x="-150" width="1800" fill="#1b365d" y="-149.999993" height="1799.99992" fill-opacity="1"/><g transform="matrix(1, 0, 0, 1, 759, 661)"><g clip-path="url(#b9a72075b6)"><g fill="#ffffff" fill-opacity="1"><g transform="translate(1.059044, 145.630979)"><g><path d="M 91.25 0 L 77.796875 0 L 67.484375 -11.953125 L 67.078125 -12.484375 C 62.910156 -8.503906 58.335938 -5.269531 53.359375 -2.78125 C 48.378906 -0.289062 43.039062 0.953125 37.34375 0.953125 C 31.726562 0.953125 26.632812 -0.109375 22.0625 -2.234375 C 17.488281 -4.367188 13.867188 -7.40625 11.203125 -11.34375 C 8.535156 -15.28125 7.203125 -19.875 7.203125 -25.125 C 7.203125 -29.832031 8.375 -34.015625 10.71875 -37.671875 C 13.070312 -41.335938 16.035156 -44.597656 19.609375 -47.453125 C 23.191406 -50.304688 26.796875 -52.863281 30.421875 -55.125 L 22.671875 -64.09375 C 20.679688 -66.351562 18.9375 -69.066406 17.4375 -72.234375 C 15.945312 -75.398438 15.203125 -78.566406 15.203125 -81.734375 C 15.203125 -86.804688 16.515625 -91.265625 19.140625 -95.109375 C 21.765625 -98.960938 25.179688 -101.972656 29.390625 -104.140625 C 33.597656 -106.316406 38.101562 -107.40625 42.90625 -107.40625 C 47.519531 -107.40625 51.882812 -106.316406 56 -104.140625 C 60.125 -101.972656 63.472656 -99.007812 66.046875 -95.25 C 68.628906 -91.488281 69.921875 -87.210938 69.921875 -82.421875 C 69.921875 -76.804688 68.539062 -72.320312 65.78125 -68.96875 C 63.019531 -65.625 59.332031 -62.503906 54.71875 -59.609375 L 44.9375 -53.640625 L 67.078125 -27.96875 C 72.328125 -35.476562 76.265625 -44.304688 78.890625 -54.453125 L 88.9375 -52 C 87.664062 -46.75 85.765625 -41.335938 83.234375 -35.765625 C 80.703125 -30.203125 77.578125 -25.023438 73.859375 -20.234375 L 74.8125 -19.015625 Z M 25.796875 -81.734375 C 25.796875 -79.023438 26.472656 -76.515625 27.828125 -74.203125 C 29.191406 -71.890625 30.820312 -69.738281 32.71875 -67.75 C 34.625 -65.757812 36.347656 -63.769531 37.890625 -61.78125 L 39.109375 -60.28125 L 49.828125 -66.796875 C 53.265625 -68.878906 55.707031 -71.144531 57.15625 -73.59375 C 58.613281 -76.039062 59.34375 -78.800781 59.34375 -81.875 C 59.34375 -84.863281 58.570312 -87.554688 57.03125 -89.953125 C 55.488281 -92.347656 53.472656 -94.25 50.984375 -95.65625 C 48.492188 -97.0625 45.753906 -97.765625 42.765625 -97.765625 C 39.867188 -97.765625 37.109375 -97.0625 34.484375 -95.65625 C 31.859375 -94.25 29.753906 -92.347656 28.171875 -89.953125 C 26.585938 -87.554688 25.796875 -84.816406 25.796875 -81.734375 Z M 37.75 -8.828125 C 41.726562 -8.828125 45.664062 -9.820312 49.5625 -11.8125 C 53.457031 -13.800781 57.125 -16.5625 60.5625 -20.09375 L 36.390625 -48.0625 C 33.671875 -46.4375 30.90625 -44.601562 28.09375 -42.5625 C 25.289062 -40.53125 22.960938 -38.203125 21.109375 -35.578125 C 19.253906 -32.953125 18.328125 -29.875 18.328125 -26.34375 C 18.328125 -21.09375 20.179688 -16.859375 23.890625 -13.640625 C 27.609375 -10.429688 32.226562 -8.828125 37.75 -8.828125 Z M 37.75 -8.828125 "/></g></g></g></g></g><g transform="matrix(1, 0, 0, 1, 78, 637)"><g clip-path="url(#ed8841e7a6)"><g fill="#ffffff" fill-opacity="1"><g transform="translate(0.040427, 181.053751)"><g><path d="M 7.3125 -66.5 C 7.3125 -76.132812 9.097656 -85.117188 12.671875 -93.453125 C 16.242188 -101.785156 21.203125 -109.066406 27.546875 -115.296875 C 33.898438 -121.535156 41.242188 -126.410156 49.578125 -129.921875 C 57.910156 -133.441406 66.835938 -135.203125 76.359375 -135.203125 C 85.085938 -135.203125 93.503906 -133.671875 101.609375 -130.609375 C 109.710938 -127.546875 116.851562 -123.09375 123.03125 -117.25 C 129.21875 -111.414062 133.785156 -104.304688 136.734375 -95.921875 L 111.5625 -84.34375 C 108.726562 -91.71875 104.21875 -97.554688 98.03125 -101.859375 C 91.851562 -106.171875 84.570312 -108.328125 76.1875 -108.328125 C 68.476562 -108.328125 61.585938 -106.457031 55.515625 -102.71875 C 49.453125 -98.976562 44.664062 -93.960938 41.15625 -87.671875 C 37.644531 -81.378906 35.890625 -74.429688 35.890625 -66.828125 C 35.890625 -59.117188 37.613281 -52.085938 41.0625 -45.734375 C 44.519531 -39.390625 49.28125 -34.316406 55.34375 -30.515625 C 61.414062 -26.722656 68.363281 -24.828125 76.1875 -24.828125 C 84.570312 -24.828125 91.910156 -27.125 98.203125 -31.71875 C 104.503906 -36.3125 109.070312 -42.234375 111.90625 -49.484375 L 137.234375 -37.75 C 134.179688 -29.363281 129.476562 -22.222656 123.125 -16.328125 C 116.78125 -10.429688 109.492188 -5.921875 101.265625 -2.796875 C 93.046875 0.316406 84.570312 1.875 75.84375 1.875 C 66.207031 1.875 57.222656 0.144531 48.890625 -3.3125 C 40.554688 -6.769531 33.269531 -11.585938 27.03125 -17.765625 C 20.800781 -23.953125 15.957031 -31.210938 12.5 -39.546875 C 9.039062 -47.878906 7.3125 -56.863281 7.3125 -66.5 Z M 7.3125 -66.5 "/></g></g></g><g fill="#ffffff" fill-opacity="1"><g transform="translate(140.17254, 181.053751)"><g><path d="M 7.3125 -66.5 C 7.3125 -76.019531 9.125 -84.945312 12.75 -93.28125 C 16.382812 -101.613281 21.375 -108.925781 27.71875 -115.21875 C 34.070312 -121.507812 41.46875 -126.410156 49.90625 -129.921875 C 58.351562 -133.441406 67.34375 -135.203125 76.875 -135.203125 C 86.394531 -135.203125 95.320312 -133.472656 103.65625 -130.015625 C 111.988281 -126.554688 119.300781 -121.738281 125.59375 -115.5625 C 131.882812 -109.382812 136.785156 -102.15625 140.296875 -93.875 C 143.816406 -85.59375 145.578125 -76.691406 145.578125 -67.171875 C 145.578125 -57.535156 143.789062 -48.519531 140.21875 -40.125 C 136.644531 -31.738281 131.65625 -24.367188 125.25 -18.015625 C 118.84375 -11.671875 111.441406 -6.738281 103.046875 -3.21875 C 94.660156 0.289062 85.707031 2.046875 76.1875 2.046875 C 66.664062 2.046875 57.738281 0.289062 49.40625 -3.21875 C 41.070312 -6.738281 33.757812 -11.613281 27.46875 -17.84375 C 21.175781 -24.082031 16.242188 -31.34375 12.671875 -39.625 C 9.097656 -47.90625 7.3125 -56.863281 7.3125 -66.5 Z M 35.546875 -66.671875 C 35.546875 -59.066406 37.359375 -52.0625 40.984375 -45.65625 C 44.609375 -39.25 49.539062 -34.144531 55.78125 -30.34375 C 62.019531 -26.550781 68.9375 -24.65625 76.53125 -24.65625 C 84.238281 -24.65625 91.179688 -26.550781 97.359375 -30.34375 C 103.535156 -34.144531 108.4375 -39.25 112.0625 -45.65625 C 115.695312 -52.0625 117.515625 -59.066406 117.515625 -66.671875 C 117.515625 -74.378906 115.695312 -81.378906 112.0625 -87.671875 C 108.4375 -93.960938 103.535156 -99.003906 97.359375 -102.796875 C 91.179688 -106.597656 84.238281 -108.5 76.53125 -108.5 C 68.9375 -108.5 62.019531 -106.597656 55.78125 -102.796875 C 49.539062 -99.003906 44.609375 -93.960938 40.984375 -87.671875 C 37.359375 -81.378906 35.546875 -74.378906 35.546875 -66.671875 Z M 35.546875 -66.671875 "/></g></g></g></g></g><g transform="matrix(1, 0, 0, 1, 357, 637)"><g clip-path="url(#7efd123783)"><g fill="#ffffff" fill-opacity="1"><g transform="translate(1.199241, 181.053751)"><g><path d="M 30.953125 0 L -0.171875 0 L 47.78125 -68.53125 L 2.546875 -133.15625 L 34.859375 -133.15625 L 64.28125 -89.96875 L 94.046875 -133.15625 L 126.1875 -133.15625 L 80.609375 -68.703125 L 128.5625 0 L 96.421875 0 L 63.9375 -47.953125 Z M 30.953125 0 "/></g></g></g><g fill="#ffffff" fill-opacity="1"><g transform="translate(131.63773, 181.053751)"><g><path d="M 15.46875 -133.15625 L 102.71875 -133.15625 L 102.71875 -107.3125 L 42.6875 -107.3125 L 42.6875 -80.265625 L 96.421875 -80.265625 L 96.421875 -54.421875 L 42.6875 -54.421875 L 42.6875 -25.671875 L 103.0625 -25.671875 L 103.0625 0 L 15.46875 0 Z M 15.46875 -133.15625 "/></g></g></g><g fill="#ffffff" fill-opacity="1"><g transform="translate(246.430412, 181.053751)"><g><path d="M 42.6875 -91.828125 L 42.6875 0 L 15.46875 0 L 15.46875 -133.15625 L 46.9375 -133.15625 L 104.765625 -46.25 L 104.765625 -133.15625 L 131.96875 -133.15625 L 131.96875 0 L 103.90625 0 Z M 42.6875 -91.828125 "/></g></g></g></g></g><g transform="matrix(1, 0, 0, 1, 872, 636)"><g clip-path="url(#00205e8b65)"><g fill="#ffffff" fill-opacity="1"><g transform="translate(0.919099, 180.296173)"><g><path d="M 42.859375 0 L 15.46875 0 L 15.46875 -133.15625 L 42.859375 -133.15625 L 42.859375 -75.171875 L 88.609375 -133.15625 L 122.953125 -133.15625 L 72.109375 -69.5625 L 126.359375 0 L 90.8125 0 L 42.859375 -63.265625 Z M 42.859375 0 "/></g></g></g><g fill="#ffffff" fill-opacity="1"><g transform="translate(131.187541, 180.296173)"><g><path d="M 43.03125 -133.15625 L 43.03125 0 L 15.46875 0 L 15.46875 -133.15625 Z M 43.03125 -133.15625 "/></g></g></g><g fill="#ffffff" fill-opacity="1"><g transform="translate(194.961252, 180.296173)"><g><path d="M 42.6875 -91.828125 L 42.6875 0 L 15.46875 0 L 15.46875 -133.15625 L 46.9375 -133.15625 L 104.765625 -46.25 L 104.765625 -133.15625 L 131.96875 -133.15625 L 131.96875 0 L 103.90625 0 Z M 42.6875 -91.828125 "/></g></g></g></g></g><g transform="matrix(1, 0, 0, 1, 1209, 636)"><g clip-path="url(#20600a3449)"><g fill="#ffffff" fill-opacity="1"><g transform="translate(0.51072, 180.296173)"><g><path d="M 35.375 -66.671875 C 35.375 -58.953125 37.101562 -51.863281 40.5625 -45.40625 C 44.019531 -38.945312 48.835938 -33.789062 55.015625 -29.9375 C 61.191406 -26.082031 68.304688 -24.15625 76.359375 -24.15625 C 85.429688 -24.15625 93.023438 -26.25 99.140625 -30.4375 C 105.265625 -34.632812 109.117188 -40.019531 110.703125 -46.59375 L 70.234375 -46.59375 L 70.234375 -71.59375 L 139.453125 -71.59375 L 139.453125 -61.21875 C 139.453125 -50.90625 137.722656 -41.78125 134.265625 -33.84375 C 130.804688 -25.90625 126.097656 -19.300781 120.140625 -14.03125 C 114.191406 -8.757812 107.445312 -4.757812 99.90625 -2.03125 C 92.375 0.6875 84.523438 2.046875 76.359375 2.046875 C 66.035156 2.046875 56.648438 0.257812 48.203125 -3.3125 C 39.765625 -6.882812 32.484375 -11.785156 26.359375 -18.015625 C 20.234375 -24.253906 15.523438 -31.507812 12.234375 -39.78125 C 8.953125 -48.0625 7.3125 -56.96875 7.3125 -66.5 C 7.3125 -76.25 9.125 -85.257812 12.75 -93.53125 C 16.382812 -101.8125 21.398438 -109.097656 27.796875 -115.390625 C 34.203125 -121.679688 41.570312 -126.554688 49.90625 -130.015625 C 58.238281 -133.472656 67.171875 -135.203125 76.703125 -135.203125 C 85.203125 -135.203125 92.820312 -134.039062 99.5625 -131.71875 C 106.3125 -129.394531 112.148438 -126.359375 117.078125 -122.609375 C 122.015625 -118.867188 126.097656 -114.816406 129.328125 -110.453125 C 132.554688 -106.085938 134.910156 -101.804688 136.390625 -97.609375 L 112.078125 -85.71875 C 110.828125 -89.113281 108.753906 -92.625 105.859375 -96.25 C 102.972656 -99.882812 99.117188 -102.945312 94.296875 -105.4375 C 89.484375 -107.9375 83.503906 -109.1875 76.359375 -109.1875 C 68.878906 -109.1875 62.046875 -107.3125 55.859375 -103.5625 C 49.679688 -99.820312 44.722656 -94.75 40.984375 -88.34375 C 37.242188 -81.9375 35.375 -74.710938 35.375 -66.671875 Z M 35.375 -66.671875 "/></g></g></g></g></g><g transform="matrix(1, 0, 0, 1, 1369, 695)"><g clip-path="url(#b616048890)"><g fill="#ffffff" fill-opacity="1"><g transform="translate(7.564457, 0.830831)"><g><path d="M 13.28125 19.109375 L 12.46875 17.328125 C 13.21875 17.078125 13.945312 16.675781 14.65625 16.125 C 15.363281 15.582031 15.945312 14.867188 16.40625 13.984375 C 16.863281 13.097656 17.09375 12 17.09375 10.6875 C 17.09375 9.6875 16.90625 8.738281 16.53125 7.84375 C 16.164062 6.957031 15.644531 6.175781 14.96875 5.5 C 14.289062 4.820312 13.484375 4.289062 12.546875 3.90625 C 11.609375 3.519531 10.570312 3.328125 9.4375 3.328125 C 8.019531 3.328125 6.71875 3.625 5.53125 4.21875 C 4.351562 4.8125 3.410156 5.660156 2.703125 6.765625 C 2.003906 7.878906 1.65625 9.195312 1.65625 10.71875 C 1.65625 11.832031 1.875 12.875 2.3125 13.84375 C 2.75 14.820312 3.382812 15.628906 4.21875 16.265625 C 5.0625 16.910156 6.078125 17.265625 7.265625 17.328125 L 7.265625 9.484375 L 9.078125 9.484375 L 9.078125 19.4375 L 8.359375 19.4375 C 7.179688 19.4375 6.070312 19.234375 5.03125 18.828125 C 3.988281 18.429688 3.078125 17.851562 2.296875 17.09375 C 1.515625 16.34375 0.90625 15.425781 0.46875 14.34375 C 0.03125 13.269531 -0.1875 12.046875 -0.1875 10.671875 C -0.1875 9.242188 0.0507812 7.953125 0.53125 6.796875 C 1.007812 5.648438 1.679688 4.664062 2.546875 3.84375 C 3.421875 3.019531 4.429688 2.390625 5.578125 1.953125 C 6.734375 1.515625 7.984375 1.296875 9.328125 1.296875 C 10.679688 1.296875 11.941406 1.53125 13.109375 2 C 14.273438 2.46875 15.296875 3.128906 16.171875 3.984375 C 17.054688 4.835938 17.738281 5.835938 18.21875 6.984375 C 18.707031 8.140625 18.953125 9.390625 18.953125 10.734375 C 18.953125 12.285156 18.671875 13.628906 18.109375 14.765625 C 17.554688 15.898438 16.847656 16.828125 15.984375 17.546875 C 15.117188 18.273438 14.21875 18.796875 13.28125 19.109375 Z M 13.28125 19.109375 "/></g></g></g><g fill="#ffffff" fill-opacity="1"><g transform="translate(7.564457, 26.16733)"><g><path d="M 7.59375 4.578125 L 0 4.578125 L 0 2.609375 L 18.765625 2.609375 L 18.765625 9.109375 C 18.765625 10.640625 18.507812 11.890625 18 12.859375 C 17.5 13.828125 16.832031 14.539062 16 15 C 15.175781 15.46875 14.273438 15.703125 13.296875 15.703125 C 12.234375 15.703125 11.320312 15.460938 10.5625 14.984375 C 9.800781 14.515625 9.203125 13.890625 8.765625 13.109375 C 8.335938 12.335938 8.0625 11.484375 7.9375 10.546875 L 0 16.34375 L 0 13.953125 L 7.59375 8.40625 Z M 9.390625 4.578125 L 9.390625 8.9375 C 9.390625 10.070312 9.578125 10.988281 9.953125 11.6875 C 10.328125 12.394531 10.8125 12.90625 11.40625 13.21875 C 12 13.539062 12.609375 13.703125 13.234375 13.703125 C 13.859375 13.703125 14.445312 13.554688 15 13.265625 C 15.5625 12.984375 16.019531 12.5 16.375 11.8125 C 16.738281 11.125 16.921875 10.179688 16.921875 8.984375 L 16.921875 4.578125 Z M 9.390625 4.578125 "/></g></g></g><g fill="#ffffff" fill-opacity="1"><g transform="translate(7.564457, 48.220182)"><g><path d="M 9.4375 20.15625 C 8.101562 20.15625 6.851562 19.921875 5.6875 19.453125 C 4.519531 18.984375 3.492188 18.316406 2.609375 17.453125 C 1.734375 16.597656 1.046875 15.597656 0.546875 14.453125 C 0.0546875 13.304688 -0.1875 12.050781 -0.1875 10.6875 C -0.1875 9.34375 0.0507812 8.097656 0.53125 6.953125 C 1.019531 5.816406 1.695312 4.820312 2.5625 3.96875 C 3.425781 3.125 4.429688 2.46875 5.578125 2 C 6.734375 1.53125 7.984375 1.296875 9.328125 1.296875 C 10.671875 1.296875 11.925781 1.53125 13.09375 2 C 14.257812 2.46875 15.28125 3.128906 16.15625 3.984375 C 17.03125 4.835938 17.710938 5.835938 18.203125 6.984375 C 18.703125 8.140625 18.953125 9.398438 18.953125 10.765625 C 18.953125 12.109375 18.707031 13.347656 18.21875 14.484375 C 17.738281 15.628906 17.066406 16.625 16.203125 17.46875 C 15.335938 18.320312 14.328125 18.984375 13.171875 19.453125 C 12.023438 19.921875 10.78125 20.15625 9.4375 20.15625 Z M 9.328125 18.125 C 10.378906 18.125 11.367188 17.941406 12.296875 17.578125 C 13.234375 17.222656 14.066406 16.710938 14.796875 16.046875 C 15.523438 15.378906 16.09375 14.585938 16.5 13.671875 C 16.90625 12.765625 17.109375 11.769531 17.109375 10.6875 C 17.109375 9.613281 16.910156 8.625 16.515625 7.71875 C 16.117188 6.820312 15.5625 6.046875 14.84375 5.390625 C 14.132812 4.734375 13.320312 4.222656 12.40625 3.859375 C 11.488281 3.503906 10.5 3.328125 9.4375 3.328125 C 8.382812 3.328125 7.382812 3.503906 6.4375 3.859375 C 5.5 4.222656 4.671875 4.738281 3.953125 5.40625 C 3.234375 6.070312 2.671875 6.859375 2.265625 7.765625 C 1.859375 8.671875 1.65625 9.671875 1.65625 10.765625 C 1.65625 11.847656 1.851562 12.835938 2.25 13.734375 C 2.65625 14.628906 3.210938 15.40625 3.921875 16.0625 C 4.628906 16.71875 5.441406 17.222656 6.359375 17.578125 C 7.273438 17.941406 8.265625 18.125 9.328125 18.125 Z M 9.328125 18.125 "/></g></g></g><g fill="#ffffff" fill-opacity="1"><g transform="translate(7.564457, 74.467485)"><g><path d="M 18.765625 16.46875 L 7.328125 16.46875 C 4.960938 16.46875 3.117188 15.851562 1.796875 14.625 C 0.472656 13.394531 -0.1875 11.660156 -0.1875 9.421875 C -0.1875 7.898438 0.117188 6.613281 0.734375 5.5625 C 1.347656 4.519531 2.210938 3.726562 3.328125 3.1875 C 4.453125 2.644531 5.75 2.375 7.21875 2.375 L 18.765625 2.375 L 18.765625 4.34375 L 7.3125 4.34375 C 5.945312 4.34375 4.847656 4.566406 4.015625 5.015625 C 3.191406 5.472656 2.59375 6.09375 2.21875 6.875 C 1.84375 7.65625 1.65625 8.523438 1.65625 9.484375 C 1.65625 11.097656 2.140625 12.335938 3.109375 13.203125 C 4.085938 14.066406 5.445312 14.5 7.1875 14.5 L 18.765625 14.5 Z M 18.765625 16.46875 "/></g></g></g><g fill="#ffffff" fill-opacity="1"><g transform="translate(7.564457, 98.102237)"><g><path d="M 0 2.609375 L 18.765625 2.609375 L 18.765625 8.890625 C 18.765625 10.421875 18.492188 11.671875 17.953125 12.640625 C 17.421875 13.609375 16.726562 14.320312 15.875 14.78125 C 15.019531 15.25 14.109375 15.484375 13.140625 15.484375 C 12.078125 15.484375 11.109375 15.222656 10.234375 14.703125 C 9.359375 14.179688 8.65625 13.40625 8.125 12.375 C 7.59375 11.34375 7.328125 10.070312 7.328125 8.5625 L 7.328125 4.578125 L 0 4.578125 Z M 9.15625 4.578125 L 9.15625 8.625 C 9.15625 9.78125 9.347656 10.710938 9.734375 11.421875 C 10.128906 12.128906 10.625 12.644531 11.21875 12.96875 C 11.8125 13.300781 12.425781 13.46875 13.0625 13.46875 C 13.6875 13.46875 14.289062 13.328125 14.875 13.046875 C 15.46875 12.765625 15.957031 12.28125 16.34375 11.59375 C 16.726562 10.90625 16.921875 9.945312 16.921875 8.71875 L 16.921875 4.578125 Z M 9.15625 4.578125 "/></g></g></g></g></g></svg>